<svg width="74" height="65" viewBox="0 0 74 65" fill="none" xmlns="http://www.w3.org/2000/svg">
<path d="M17.2373 25V18.9851L11.2973 7.52941H14.9661L18.6599 15.0168H19.1092L22.803 7.52941H26.4718L20.5318 18.9851V25H17.2373Z" fill="#4B0081"/>
<g filter="url(#filter0_i_4251_13072)">
<path d="M33.457 20.4564L34.656 20.1075C35.6535 20.621 36.7839 20.7417 37.8252 20.446C38.8665 20.1502 39.7433 19.4595 40.2832 18.5094C40.8232 17.5593 40.9873 16.4186 40.7433 15.3115C40.4993 14.2044 39.8648 13.211 38.9646 12.5264C38.0643 11.8419 36.9634 11.5157 35.8782 11.612C34.793 11.7084 33.8019 12.2202 33.0998 13.047C32.3977 13.8738 32.0353 14.9558 32.0839 16.0802C32.1324 17.2046 32.5884 18.2903 33.3622 19.1237L33.457 20.4564Z" fill="#4B0081"/>
</g>
<path d="M31.4529 21.0541C31.4975 21.7702 31.53 22.3217 31.555 22.7028L31.5926 23.0907C31.5986 23.1891 31.5846 23.2822 31.5846 23.2822L31.5831 23.1404L31.5479 22.7187L31.4132 21.0518C31.4104 21.0486 31.4083 21.045 31.4069 21.041M31.4448 21.059C31.4479 21.0541 31.4493 21.0481 31.4487 21.0421C31.4487 21.0421 31.4457 21.0304 31.4417 21.0259C30.6106 20.1142 29.9972 19.0168 29.6546 17.8287C29.5489 17.4553 29.4712 17.0754 29.4223 16.6923C29.3931 16.4942 29.3899 16.2893 29.3716 16.0818C29.3663 15.9801 29.3512 15.8756 29.3553 15.7712L29.3631 15.4548C29.4116 13.5332 30.183 11.7419 31.5136 10.4606C32.2605 9.73947 33.1567 9.20121 34.1409 8.88257C35.2134 8.53859 36.3613 8.46652 37.4906 8.67227C38.62 8.87801 39.6987 9.35571 40.6384 10.0663C40.7585 10.1631 40.8834 10.2542 41.0014 10.3522L41.3371 10.6662L41.5066 10.8237L41.9643 11.3353C42.3442 11.8045 42.6715 12.3158 42.9394 12.8587C43.6312 14.2684 43.8915 15.8458 43.6844 17.3719C43.4772 18.898 42.8127 20.2972 41.7832 21.3754C40.7537 22.4535 39.4102 23.1572 37.939 23.3887C36.4678 23.6203 34.942 23.3682 33.5731 22.6676C33.5684 22.6686 33.5642 22.6712 33.561 22.6748L32.098 23.1224L31.7163 23.241L31.5839 23.2856C31.5839 23.2856 31.6259 23.2778 31.71 23.2535L32.0887 23.1484L33.5775 22.7261L33.5654 22.7334C34.6505 23.2998 35.8419 23.5851 37.0329 23.5638C38.396 23.5371 39.7068 23.1154 40.8173 22.3465C41.9277 21.5776 42.7934 20.4921 43.3166 19.2127C43.8398 17.9332 43.9996 16.5109 43.778 15.1064C43.5563 13.7019 42.962 12.3712 42.0623 11.2648L41.7521 10.9151L41.595 10.7415L41.4255 10.584L41.0827 10.2626C40.9634 10.1624 40.8372 10.0692 40.7139 9.97142C39.7578 9.24749 38.66 8.76061 37.5106 8.5507C36.3611 8.34079 35.1926 8.41382 34.101 8.76381C33.101 9.09077 32.1916 9.64193 31.4356 10.3793C30.0896 11.6819 29.3136 13.5017 29.273 15.4506L29.2658 15.7725C29.263 15.8791 29.2781 15.9836 29.2846 16.0875C29.3022 16.2983 29.3087 16.5042 29.3371 16.7056C29.3903 17.0926 29.4712 17.4764 29.5791 17.8537C29.9311 19.0553 30.5604 20.1622 31.4112 21.0762L31.4415 21.0348" stroke="#4B0081" stroke-width="1.23333"/>
<path d="M54.4249 25.3494C52.994 25.3494 51.7628 25.0915 50.7312 24.5757C49.7162 24.0433 48.9342 23.2945 48.3851 22.3295C47.8527 21.3478 47.5865 20.1914 47.5865 18.8603V7.52941H50.8809V18.9602C50.8809 20.025 51.1804 20.8653 51.7794 21.4809C52.395 22.0966 53.2769 22.4044 54.4249 22.4044C55.573 22.4044 56.4465 22.0966 57.0455 21.4809C57.6612 20.8653 57.969 20.025 57.969 18.9602V7.52941H61.2634V18.8603C61.2634 20.1914 60.9889 21.3478 60.4398 22.3295C59.9074 23.2945 59.1254 24.0433 58.0938 24.5757C57.0788 25.0915 55.8559 25.3494 54.4249 25.3494Z" fill="#4B0081"/>
<path d="M7.71202 43.2947C6.36429 43.2947 5.17462 43.0535 4.14303 42.5709C3.11143 42.0884 2.30445 41.3979 1.7221 40.4994C1.13975 39.6009 0.848572 38.5194 0.848572 37.2549V36.5561H4.09311V37.2549C4.09311 38.3031 4.41756 39.0935 5.06647 39.6259C5.71538 40.1417 6.59723 40.3996 7.71202 40.3996C8.84345 40.3996 9.6837 40.175 10.2328 39.7257C10.7985 39.2765 11.0813 38.7025 11.0813 38.0036C11.0813 37.5211 10.9399 37.1301 10.6571 36.8306C10.3908 36.5311 9.99152 36.2898 9.45908 36.1068C8.94328 35.9072 8.31101 35.7241 7.56227 35.5577L6.98824 35.433C5.79025 35.1667 4.75866 34.834 3.89345 34.4346C3.04487 34.0187 2.38765 33.4779 1.92177 32.8124C1.47252 32.1468 1.2479 31.2816 1.2479 30.2167C1.2479 29.1519 1.49748 28.2451 1.99664 27.4963C2.51244 26.7309 3.2279 26.1486 4.14303 25.7493C5.07479 25.3333 6.16462 25.1253 7.41252 25.1253C8.66042 25.1253 9.76689 25.3416 10.7319 25.7742C11.7136 26.1902 12.479 26.8225 13.0281 27.671C13.5938 28.503 13.8766 29.5512 13.8766 30.8157V31.5645H10.6321V30.8157C10.6321 30.1502 10.499 29.6177 10.2328 29.2184C9.9832 28.8025 9.61715 28.503 9.13462 28.3199C8.6521 28.1203 8.07807 28.0204 7.41252 28.0204C6.4142 28.0204 5.67378 28.2118 5.19126 28.5945C4.72538 28.9605 4.49244 29.468 4.49244 30.1169C4.49244 30.5495 4.60059 30.9156 4.81689 31.2151C5.04983 31.5146 5.39093 31.7641 5.84017 31.9638C6.28941 32.1635 6.86345 32.3382 7.56227 32.4879L8.1363 32.6127C9.3842 32.8789 10.4657 33.22 11.3808 33.636C12.3126 34.0519 13.0364 34.601 13.5522 35.2832C14.068 35.9654 14.3259 36.8389 14.3259 37.9038C14.3259 38.9687 14.0513 39.9088 13.5023 40.7241C12.9698 41.5227 12.2045 42.155 11.2061 42.6209C10.2245 43.0701 9.05975 43.2947 7.71202 43.2947ZM16.8827 47.9369V30.5661H19.9775V32.0636H20.4267C20.7096 31.5811 21.1505 31.1568 21.7495 30.7908C22.3485 30.4081 23.2054 30.2167 24.3202 30.2167C25.3185 30.2167 26.242 30.4663 27.0905 30.9655C27.9391 31.448 28.6213 32.1635 29.1371 33.1119C29.6529 34.0603 29.9108 35.2083 29.9108 36.5561V36.9554C29.9108 38.3031 29.6529 39.4512 29.1371 40.3996C28.6213 41.348 27.9391 42.0718 27.0905 42.5709C26.242 43.0535 25.3185 43.2947 24.3202 43.2947C23.5715 43.2947 22.9392 43.2032 22.4234 43.0202C21.9242 42.8538 21.5166 42.6375 21.2004 42.3713C20.901 42.0884 20.6597 41.8056 20.4767 41.5227H20.0274V47.9369H16.8827ZM23.3718 40.5493C24.3535 40.5493 25.1604 40.2415 25.7927 39.6259C26.4416 38.9936 26.7661 38.0785 26.7661 36.8805V36.6309C26.7661 35.433 26.4416 34.5262 25.7927 33.9105C25.1438 33.2783 24.3368 32.9621 23.3718 32.9621C22.4067 32.9621 21.5998 33.2783 20.9509 33.9105C20.302 34.5262 19.9775 35.433 19.9775 36.6309V36.8805C19.9775 38.0785 20.302 38.9936 20.9509 39.6259C21.5998 40.2415 22.4067 40.5493 23.3718 40.5493ZM38.4388 43.2947C37.2076 43.2947 36.1177 43.0368 35.1693 42.521C34.2376 41.9886 33.5054 41.2482 32.973 40.2998C32.4572 39.3347 32.1993 38.2033 32.1993 36.9055V36.606C32.1993 35.3082 32.4572 34.1851 32.973 33.2367C33.4888 32.2716 34.2126 31.5312 35.1444 31.0154C36.0761 30.483 37.1576 30.2167 38.3889 30.2167C39.6035 30.2167 40.6601 30.4913 41.5586 31.0404C42.457 31.5728 43.1559 32.3215 43.655 33.2866C44.1542 34.235 44.4038 35.3414 44.4038 36.606V37.6792H35.3939C35.4272 38.5277 35.7433 39.2183 36.3423 39.7507C36.9413 40.2831 37.6734 40.5493 38.5386 40.5493C39.4205 40.5493 40.0694 40.358 40.4854 39.9753C40.9013 39.5926 41.2175 39.1683 41.4338 38.7025L44.0044 40.0502C43.7715 40.4828 43.4304 40.957 42.9812 41.4728C42.5486 41.972 41.9662 42.4046 41.2341 42.7706C40.502 43.12 39.5702 43.2947 38.4388 43.2947ZM35.4189 35.3331H41.2091C41.1426 34.6177 40.8514 34.0436 40.3356 33.611C39.8365 33.1784 39.1792 32.9621 38.3639 32.9621C37.5154 32.9621 36.8415 33.1784 36.3423 33.611C35.8432 34.0436 35.5354 34.6177 35.4189 35.3331ZM51.0463 43.2947C50.1645 43.2947 49.3741 43.145 48.6753 42.8455C47.9765 42.5293 47.4191 42.0801 47.0031 41.4977C46.6038 40.8988 46.4041 40.175 46.4041 39.3264C46.4041 38.4778 46.6038 37.7707 47.0031 37.205C47.4191 36.6226 47.9848 36.19 48.7003 35.9072C49.4324 35.6077 50.2643 35.4579 51.196 35.4579H54.5903V34.7591C54.5903 34.1767 54.4073 33.7025 54.0413 33.3365C53.6752 32.9538 53.0929 32.7625 52.2942 32.7625C51.5122 32.7625 50.9298 32.9455 50.5471 33.3115C50.1645 33.6609 49.9149 34.1185 49.7984 34.6842L46.9033 33.7109C47.1029 33.0786 47.4191 32.5046 47.8517 31.9888C48.3009 31.4563 48.8916 31.032 49.6237 30.7159C50.3724 30.3831 51.2792 30.2167 52.3441 30.2167C53.9747 30.2167 55.2642 30.6244 56.2126 31.4397C57.161 32.255 57.6352 33.4363 57.6352 34.9837V39.6009C57.6352 40.1001 57.8682 40.3497 58.334 40.3497H59.3324V42.9453H57.2359C56.6203 42.9453 56.1128 42.7956 55.7134 42.4961C55.3141 42.1966 55.1145 41.7972 55.1145 41.2981V41.2731H54.6403C54.5737 41.4728 54.4239 41.739 54.191 42.0718C53.9581 42.3879 53.592 42.6708 53.0929 42.9204C52.5937 43.1699 51.9115 43.2947 51.0463 43.2947ZM51.5954 40.749C52.4772 40.749 53.1927 40.5077 53.7418 40.0252C54.3075 39.5261 54.5903 38.8688 54.5903 38.0535V37.804H51.4207C50.8383 37.804 50.3808 37.9288 50.048 38.1783C49.7152 38.4279 49.5488 38.7773 49.5488 39.2266C49.5488 39.6758 49.7235 40.0419 50.0729 40.3247C50.4224 40.6076 50.9298 40.749 51.5954 40.749ZM61.6316 42.9453V25.4747H64.7763V35.1335H65.2256L69.3187 30.5661H73.4118L67.6964 36.5561L73.6114 42.9453H69.5682L65.2256 38.0286H64.7763V42.9453H61.6316Z" fill="#1E293B"/>
<path d="M27.5015 55.9302C27.4098 55.8582 27.3434 55.7801 27.3022 55.6961C27.2611 55.6121 27.2507 55.5264 27.2711 55.4389C27.2938 55.3514 27.3527 55.2664 27.4477 55.1839L27.4842 55.1523L27.6345 55.2702L27.598 55.3019C27.4971 55.3894 27.4526 55.4789 27.4643 55.5705C27.4771 55.6611 27.5319 55.7443 27.6284 55.8201C27.7274 55.8978 27.8242 55.9384 27.919 55.9419C28.0138 55.9455 28.0937 55.9191 28.1586 55.8628C28.2038 55.8236 28.2276 55.7829 28.2301 55.7408C28.2339 55.6997 28.2227 55.6555 28.1967 55.6083C28.1719 55.56 28.1374 55.5081 28.0935 55.4525L28.0219 55.359C27.9668 55.2851 27.9243 55.2143 27.8942 55.1466C27.8641 55.0789 27.8543 55.0137 27.8646 54.9509C27.8772 54.8881 27.9177 54.827 27.9861 54.7676C28.0545 54.7083 28.1311 54.6708 28.216 54.655C28.302 54.6402 28.3903 54.6463 28.481 54.6734C28.5728 54.7015 28.6609 54.7487 28.7454 54.815C28.8311 54.8823 28.8933 54.955 28.9319 55.0332C28.9729 55.1114 28.9848 55.1897 28.9678 55.2683C28.9532 55.3469 28.9041 55.4224 28.8207 55.4948L28.7477 55.5581L28.5974 55.4401L28.6704 55.3768C28.7295 55.3255 28.7638 55.2738 28.7732 55.2218C28.7837 55.1707 28.7748 55.1197 28.7463 55.0686C28.719 55.0184 28.6764 54.9706 28.6185 54.9251C28.5352 54.8597 28.4503 54.8227 28.3637 54.8141C28.2782 54.8044 28.203 54.8278 28.1381 54.8841C28.0952 54.9213 28.0713 54.96 28.0664 55.0002C28.0615 55.0404 28.0702 55.0837 28.0927 55.13C28.1163 55.1754 28.1494 55.2254 28.1922 55.28L28.2638 55.3735C28.3223 55.4444 28.3672 55.5142 28.3985 55.5828C28.4321 55.6513 28.4438 55.719 28.4336 55.7857C28.4246 55.8514 28.3842 55.9154 28.3123 55.9777C28.2404 56.0401 28.1591 56.0797 28.0684 56.0966C27.9777 56.1135 27.8829 56.108 27.7839 56.0801C27.6874 56.0522 27.5932 56.0022 27.5015 55.9302Z" fill="#1E293B"/>
<path d="M28.0406 56.8842L29.2228 55.8271L29.3639 55.9343L29.2249 56.0586L29.2505 56.0781C29.3161 56.0579 29.3911 56.0525 29.4756 56.0618C29.5613 56.0721 29.6505 56.1125 29.7434 56.1831C29.8203 56.2416 29.8728 56.3108 29.9009 56.3908C29.9313 56.4707 29.9334 56.5537 29.9073 56.6398C29.8823 56.7268 29.8246 56.8107 29.7343 56.8915L29.712 56.9114C29.6227 56.9912 29.5266 57.0459 29.4235 57.0754C29.3205 57.1049 29.2194 57.1104 29.1203 57.0919C29.0225 57.0743 28.9345 57.0357 28.8563 56.9763C28.794 56.9289 28.7489 56.8814 28.7209 56.8336C28.693 56.7878 28.6777 56.744 28.6748 56.7021C28.672 56.6602 28.6758 56.6224 28.6863 56.5887L28.6606 56.5692L28.1854 56.9942L28.0406 56.8842ZM28.9379 56.8397C29.0308 56.9102 29.1334 56.9428 29.2457 56.9373C29.3604 56.9318 29.4675 56.8845 29.567 56.7955L29.5824 56.7817C29.6819 56.6927 29.7298 56.6014 29.7261 56.5077C29.7247 56.414 29.6776 56.3318 29.5848 56.2612C29.4932 56.1916 29.3894 56.1591 29.2735 56.1637C29.16 56.1682 29.0534 56.2149 28.9539 56.3039L28.9385 56.3177C28.839 56.4067 28.7905 56.4986 28.7931 56.5933C28.798 56.6879 28.8463 56.77 28.9379 56.8397Z" fill="#1E293B"/>
<path d="M30.0879 57.8955C29.9956 57.8294 29.9318 57.755 29.8965 57.6723C29.8623 57.5885 29.8576 57.5027 29.8825 57.415C29.9074 57.3272 29.9616 57.2437 30.0452 57.1647L30.0653 57.1457C30.15 57.0655 30.2435 57.0093 30.3457 56.9769C30.448 56.9445 30.5507 56.9365 30.6538 56.9529C30.7581 56.9683 30.8546 57.0078 30.9431 57.0712C31.0292 57.1328 31.0886 57.2031 31.1213 57.2821C31.1551 57.36 31.16 57.4414 31.1361 57.5262C31.1123 57.611 31.0591 57.6924 30.9766 57.7704L30.9164 57.8273L30.1697 57.2927C30.0853 57.3786 30.048 57.4668 30.0577 57.5571C30.0686 57.6464 30.1189 57.7232 30.2087 57.7875C30.2873 57.8438 30.364 57.8718 30.4387 57.8716C30.5135 57.8714 30.5844 57.8583 30.6514 57.8322L30.7235 57.9755C30.6702 57.9948 30.6095 58.0087 30.5412 58.0173C30.4742 58.0267 30.4022 58.0233 30.3251 58.007C30.2493 57.9917 30.1703 57.9545 30.0879 57.8955ZM30.2802 57.1912L30.8753 57.6173C30.9462 57.5421 30.9759 57.4652 30.9647 57.3867C30.9546 57.3091 30.9084 57.2409 30.8261 57.1819C30.7425 57.122 30.6527 57.0929 30.5567 57.0946C30.4607 57.0962 30.3685 57.1284 30.2802 57.1912Z" fill="#1E293B"/>
<path d="M31.2256 58.7073C31.1602 58.6643 31.1102 58.6153 31.0756 58.5601C31.041 58.505 31.0266 58.4486 31.0322 58.3911C31.0379 58.3335 31.0669 58.2778 31.1195 58.224C31.173 58.1691 31.2323 58.1341 31.2974 58.1192C31.3636 58.1032 31.4321 58.1041 31.5031 58.1219C31.5752 58.1386 31.6446 58.1688 31.7113 58.2126L32.0287 58.4211L32.0866 58.3618C32.1423 58.3047 32.1664 58.2466 32.1588 58.1875C32.1524 58.1293 32.1108 58.0749 32.0338 58.0244C31.9582 57.9747 31.8836 57.9519 31.8102 57.9559C31.7379 57.9589 31.6683 57.9817 31.6015 58.0243L31.4977 57.8912C31.557 57.8563 31.6211 57.8317 31.6898 57.8173C31.7595 57.8019 31.8327 57.8013 31.9093 57.8155C31.9882 57.8295 32.0668 57.8622 32.1451 57.9136C32.2656 57.9928 32.333 58.0812 32.3472 58.1788C32.3624 58.2754 32.3229 58.3719 32.2286 58.4686L31.8734 58.8327C31.8413 58.8657 31.8432 58.894 31.8791 58.9175L31.9657 58.9744L31.858 59.0848L31.7252 58.9976C31.6829 58.9698 31.6586 58.9376 31.6522 58.901C31.6469 58.8633 31.6609 58.8274 31.6941 58.7933L31.7021 58.7851L31.679 58.7699C31.6446 58.7815 31.6039 58.7909 31.557 58.7979C31.5125 58.8047 31.4628 58.8018 31.4078 58.7891C31.3517 58.7775 31.291 58.7503 31.2256 58.7073ZM31.3522 58.6066C31.442 58.6656 31.5364 58.6907 31.6355 58.6819C31.7369 58.6728 31.8278 58.6271 31.9082 58.5447L31.9259 58.5266L31.6142 58.3219C31.5539 58.2823 31.4927 58.261 31.4304 58.2579C31.3705 58.2546 31.3186 58.2755 31.2747 58.3205C31.2307 58.3655 31.2163 58.4137 31.2314 58.4651C31.2478 58.5173 31.2881 58.5645 31.3522 58.6066Z" fill="#1E293B"/>
<path d="M32.2725 59.3645L33.3204 58.1407L33.4783 58.2309L32.8615 58.9512L32.8895 58.9672L33.6382 58.8715L33.858 58.997L32.9601 59.1038L33.1419 59.8611L32.9241 59.7367L32.7772 59.0983L32.7493 59.0823L32.4304 59.4547L32.2725 59.3645Z" fill="#1E293B"/>
<path d="M34.0813 60.3568L34.9788 59.0187L35.1558 59.0964L34.2583 60.4345L34.0813 60.3568Z" fill="#1E293B"/>
<path d="M35.1876 60.8292C35.1269 60.8076 35.0884 60.7755 35.0722 60.7328C35.0574 60.6906 35.0649 60.6427 35.0945 60.5889L35.4658 59.9157L35.1469 59.8027L35.2236 59.6636L35.5425 59.7767L35.7359 59.426L35.9073 59.4868L35.7139 59.8374L36.061 59.9605L35.9843 60.0996L35.6372 59.9765L35.2792 60.6255C35.257 60.6658 35.2669 60.6934 35.3088 60.7083L35.5453 60.7921L35.4697 60.9292L35.1876 60.8292Z" fill="#1E293B"/>
<path d="M36.0318 61.1544C35.9889 61.1427 35.9584 61.1195 35.9404 61.0847C35.9239 61.0502 35.9248 61.0119 35.9432 60.9697C35.9615 60.9275 35.9905 60.8968 36.0303 60.8778C36.0715 60.8591 36.1136 60.8556 36.1565 60.8673C36.201 60.8794 36.2314 60.9026 36.2479 60.937C36.2645 60.9714 36.2635 61.0097 36.2452 61.052C36.2269 61.0942 36.1978 61.1248 36.1581 61.1439C36.1183 61.163 36.0763 61.1665 36.0318 61.1544Z" fill="#1E293B"/>
<path d="M37.4755 61.4982L37.8807 59.9388L38.0719 59.9676L37.7107 61.3577L38.5164 61.4792L38.4724 61.6485L37.4755 61.4982Z" fill="#1E293B"/>
<path d="M39.5857 61.8015C39.4725 61.7927 39.3767 61.7615 39.2982 61.7079C39.22 61.6527 39.1638 61.58 39.1297 61.4899C39.0956 61.3998 39.0872 61.2978 39.1047 61.1841L39.1089 61.1568C39.1266 61.0415 39.1659 60.9425 39.2266 60.8597C39.2873 60.777 39.3633 60.7153 39.4547 60.6748C39.5463 60.6328 39.6464 60.616 39.755 60.6244C39.8606 60.6326 39.9504 60.6626 40.0245 60.7144C40.0988 60.7647 40.1525 60.8333 40.1856 60.9203C40.2187 61.0072 40.2266 61.1068 40.2094 61.2191L40.1968 61.301L39.2811 61.23C39.2673 61.3502 39.2919 61.4472 39.3548 61.5212C39.418 61.5936 39.5046 61.6341 39.6148 61.6426C39.7112 61.6501 39.7888 61.6338 39.8475 61.5939C39.9063 61.5539 39.9541 61.5047 39.991 61.4462L40.1355 61.5333C40.1053 61.5786 40.066 61.6231 40.0174 61.6669C39.9704 61.7108 39.9116 61.7462 39.8409 61.7729C39.7718 61.7998 39.6867 61.8093 39.5857 61.8015ZM39.3062 61.0823L40.0359 61.1389C40.0456 61.0353 40.022 60.9521 39.9651 60.8894C39.9097 60.8267 39.8315 60.7915 39.7306 60.7837C39.6281 60.7757 39.5395 60.798 39.4648 60.8506C39.3902 60.9031 39.3373 60.9803 39.3062 61.0823Z" fill="#1E293B"/>
<path d="M41.1309 61.887C41.0527 61.8852 40.9824 61.8697 40.92 61.8406C40.8577 61.8116 40.81 61.7706 40.7771 61.7177C40.7443 61.6648 40.7306 61.6009 40.7363 61.5259C40.742 61.4494 40.7652 61.3871 40.8057 61.339C40.8463 61.2894 40.8998 61.2531 40.966 61.2301C41.0324 61.2056 41.1055 61.1943 41.1853 61.1962L41.565 61.2052L41.5712 61.1226C41.5772 61.043 41.5581 60.9797 41.514 60.9327C41.4715 60.8857 41.4042 60.8611 41.3121 60.8589C41.2216 60.8568 41.1494 60.8773 41.0954 60.9205C41.0416 60.9621 41.0027 61.0194 40.9787 61.0925L40.8126 61.0333C40.8357 60.971 40.8691 60.9151 40.9128 60.8656C40.9566 60.8145 41.0127 60.7744 41.0809 60.7454C41.1509 60.7149 41.2326 60.7007 41.3262 60.7029C41.4704 60.7063 41.5795 60.7465 41.6537 60.8233C41.7279 60.8987 41.7599 61.0036 41.7498 61.1383L41.7116 61.6455C41.7081 61.6914 41.7279 61.7149 41.7708 61.7159L41.8744 61.7184L41.8628 61.8722L41.704 61.8684C41.6534 61.8672 41.6138 61.8525 41.5852 61.8242C41.5567 61.7944 41.5442 61.7558 41.5478 61.7083L41.5486 61.6969L41.521 61.6962C41.502 61.7249 41.4766 61.7549 41.4451 61.7864C41.4152 61.8163 41.3749 61.8407 41.3243 61.8594C41.2736 61.8797 41.2091 61.8889 41.1309 61.887ZM41.1634 61.7314C41.2708 61.734 41.3598 61.7047 41.4305 61.6435C41.5028 61.5808 41.5433 61.4921 41.552 61.3773L41.5539 61.3521L41.1811 61.3433C41.109 61.3416 41.048 61.3562 40.998 61.3872C40.9497 61.4167 40.9231 61.4629 40.9184 61.5256C40.9137 61.5883 40.9338 61.6379 40.9787 61.6742C41.0251 61.7105 41.0867 61.7296 41.1634 61.7314Z" fill="#1E293B"/>
<path d="M42.4293 61.8781L42.4529 60.7528L42.6301 60.7504L42.6272 60.8885L42.6594 60.888C42.6804 60.8387 42.7118 60.8022 42.7537 60.7786C42.7957 60.7551 42.8504 60.7428 42.9179 60.7419L43.0514 60.7401L43.0479 60.9058L42.9029 60.9077C42.8216 60.9088 42.7551 60.9327 42.7035 60.9795C42.6535 61.0246 42.6275 61.0948 42.6255 61.1899L42.6111 61.8756L42.4293 61.8781Z" fill="#1E293B"/>
<path d="M43.687 61.8546L43.6264 60.7307L43.8033 60.7192L43.8136 60.91L43.8457 60.9079C43.8673 60.8527 43.9061 60.8018 43.962 60.7551C44.0193 60.7068 44.1054 60.6789 44.2202 60.6715C44.3044 60.6661 44.3804 60.6788 44.4482 60.7098C44.5174 60.7407 44.5738 60.7893 44.6174 60.8557C44.6609 60.9221 44.6854 61.0058 44.6908 61.107L44.7275 61.7873L44.5461 61.799L44.5101 61.1325C44.5041 61.0206 44.4714 60.9413 44.412 60.8944C44.3542 60.8474 44.2778 60.8269 44.1828 60.8331C44.0741 60.8401 43.9872 60.8811 43.9221 60.956C43.8585 61.0309 43.8305 61.138 43.838 61.2774L43.8685 61.8428L43.687 61.8546Z" fill="#1E293B"/>
<path d="M46.1393 61.542L45.6665 60.0017L45.8547 59.9574L46.3275 61.4976L46.1393 61.542Z" fill="#1E293B"/>
<path d="M47.3665 61.1813C47.3051 61.2009 47.2506 61.1999 47.203 61.1782C47.1568 61.1561 47.1216 61.1168 47.0973 61.0605L46.7925 60.3547L46.4702 60.4575L46.4072 60.3117L46.7296 60.2089L46.5708 59.8412L46.744 59.7859L46.9028 60.1536L47.2536 60.0416L47.3166 60.1874L46.9658 60.2994L47.2595 60.9798C47.2778 61.0221 47.3081 61.0364 47.3505 61.0229L47.5895 60.9466L47.6515 61.0903L47.3665 61.1813Z" fill="#1E293B"/>
<path d="M48.2466 60.8861C48.205 60.9019 48.1631 60.9023 48.121 60.8874C48.0802 60.8719 48.0492 60.8437 48.0279 60.8029C48.0065 60.7621 48.0028 60.7236 48.0165 60.6874C48.0317 60.6507 48.0601 60.6244 48.1017 60.6087C48.1448 60.5923 48.1867 60.5919 48.2274 60.6074C48.2682 60.6229 48.2992 60.6511 48.3205 60.6919C48.3418 60.7327 48.3456 60.7712 48.3319 60.8074C48.3181 60.8435 48.2897 60.8698 48.2466 60.8861Z" fill="#1E293B"/>
<path d="M49.5696 60.2786L48.6659 58.9447L48.8401 58.8608L49.6456 60.0499L50.3797 59.6962L50.4778 59.841L49.5696 60.2786Z" fill="#1E293B"/>
<path d="M50.8624 59.5727L50.1319 58.7164L50.2881 58.6232L51.0185 59.4795L50.8624 59.5727ZM50.0975 58.5361C50.0632 58.5566 50.0258 58.5639 49.9851 58.5582C49.9458 58.5518 49.9132 58.5333 49.8873 58.503C49.8604 58.4715 49.8497 58.4391 49.8551 58.4059C49.8619 58.3719 49.8825 58.3447 49.9167 58.3242C49.951 58.3038 49.9878 58.2968 50.0271 58.3033C50.0664 58.3097 50.0995 58.3287 50.1264 58.3603C50.1523 58.3906 50.1625 58.4224 50.1571 58.4556C50.1516 58.4888 50.1317 58.5157 50.0975 58.5361Z" fill="#1E293B"/>
<path d="M51.7114 58.9838L50.57 58.4441L50.7265 58.3307L51.7174 58.8145L51.7434 58.7956L51.3005 57.9146L51.4571 57.8012L51.9462 58.8136L51.7114 58.9838Z" fill="#1E293B"/>
<path d="M53.0599 57.9298C52.9729 58.0028 52.878 58.0519 52.7753 58.0771C52.6714 58.1013 52.5673 58.1011 52.463 58.0764C52.3587 58.0518 52.262 58.0031 52.1727 57.9305L52.1513 57.913C52.0609 57.8394 52 57.7597 51.9686 57.6739C51.9372 57.5881 51.9354 57.5031 51.9632 57.4188C51.9898 57.3335 52.0448 57.2559 52.1283 57.1859C52.2094 57.1179 52.2989 57.0722 52.397 57.049C52.4938 57.0249 52.5925 57.0246 52.6933 57.0483C52.794 57.072 52.8884 57.1197 52.9764 57.1914L53.0407 57.2438L52.337 57.8339C52.4346 57.9075 52.5383 57.9424 52.6483 57.9387C52.7571 57.934 52.8538 57.8961 52.9385 57.8251C53.0125 57.763 53.0523 57.7011 53.0578 57.6395C53.0632 57.5779 53.0527 57.5188 53.0263 57.4623L53.2051 57.4097C53.2244 57.4545 53.2366 57.5053 53.2417 57.5619C53.2481 57.6176 53.2384 57.6768 53.2129 57.7396C53.1885 57.8013 53.1375 57.8647 53.0599 57.9298ZM52.2228 57.738L52.7836 57.2676C52.698 57.2057 52.6073 57.1775 52.5115 57.1831C52.4169 57.1877 52.3308 57.2226 52.2532 57.2876C52.1744 57.3537 52.1324 57.4263 52.127 57.5056C52.1217 57.5848 52.1536 57.6623 52.2228 57.738Z" fill="#1E293B"/>
<path d="M54.2637 56.8202L52.9781 55.849L53.1218 55.7197L54.4074 56.6909L54.2637 56.8202Z" fill="#1E293B"/>
<path d="M55.1021 56.0529C55.0548 56.0967 55.004 56.1202 54.9496 56.1233C54.8964 56.1253 54.845 56.1082 54.7955 56.0719L54.1754 55.6175L53.9271 55.8473L53.799 55.7535L54.0473 55.5236L53.7243 55.2869L53.8577 55.1634L54.1808 55.4001L54.4511 55.15L54.5792 55.2439L54.3089 55.494L54.9067 55.9321C54.9438 55.9593 54.9787 55.9578 55.0114 55.9276L55.1955 55.7572L55.3218 55.8497L55.1021 56.0529Z" fill="#1E293B"/>
<path d="M29.6976 48.1878C29.4862 48.1207 29.0255 48.0384 28.5596 48.3043C28.5456 48.3121 28.5315 48.3197 28.5178 48.328C28.5101 48.3327 28.5027 48.338 28.4951 48.3429C28.4409 48.3771 28.3873 48.414 28.3368 48.4568C28.1076 48.6511 27.9913 48.8758 27.9327 49.0306C27.8274 49.3091 27.8392 49.5481 27.8434 49.6191C27.854 49.7996 27.897 49.9448 27.9132 49.9978C27.9559 50.1378 28.0158 50.277 28.0719 50.3953C28.191 50.6462 28.3696 50.9619 28.6094 51.3195C29.0919 52.0389 29.8558 52.9753 30.9705 53.9512L30.9696 53.9522C33.9109 56.5376 37.7124 57.9589 41.6461 57.9483C45.5797 57.9376 49.3756 56.4961 52.3085 53.8959L52.3104 53.8948C53.4104 52.917 54.1667 51.9875 54.6467 51.2715C54.8849 50.9163 55.0646 50.5997 55.1847 50.3436C55.2414 50.2227 55.3028 50.0778 55.3458 49.9293C55.3636 49.8678 55.4028 49.7247 55.4108 49.5474C55.4145 49.4659 55.4174 49.2745 55.3454 49.0472C55.2696 48.8083 55.0475 48.3629 54.5036 48.1576L54.3426 48.1073C53.9749 48.0167 53.6738 48.1011 53.5532 48.142C53.3929 48.1964 53.2769 48.2681 53.2234 48.3031C53.112 48.3758 53.0281 48.4522 52.9933 48.4843C52.9123 48.5589 52.8275 48.6497 52.764 48.7174C52.6147 48.8763 52.4433 49.0636 52.2017 49.3122C51.7891 49.7364 51.2025 50.3033 50.4227 50.9283L50.0761 51.1997L50.0667 51.2071L50.0563 51.2145C47.6701 53.1106 44.7001 54.1511 41.6349 54.1614C38.5698 54.1717 35.5963 53.1518 33.2032 51.2727L33.197 51.2672L33.1909 51.2626C32.2437 50.5361 31.5586 49.8541 31.086 49.3558C30.8775 49.136 30.632 48.8661 30.4883 48.7203C30.4173 48.6482 30.2926 48.5237 30.1488 48.4193C30.0838 48.3722 29.9233 48.2594 29.6976 48.1878Z" fill="#4B0081" stroke="#4B0081" stroke-width="2.78495"/>
<defs>
<filter id="filter0_i_4251_13072" x="32.0781" y="11.5938" width="8.77734" height="10.2292" filterUnits="userSpaceOnUse" color-interpolation-filters="sRGB">
<feFlood flood-opacity="0" result="BackgroundImageFix"/>
<feBlend mode="normal" in="SourceGraphic" in2="BackgroundImageFix" result="shape"/>
<feColorMatrix in="SourceAlpha" type="matrix" values="0 0 0 0 0 0 0 0 0 0 0 0 0 0 0 0 0 0 127 0" result="hardAlpha"/>
<feOffset dy="1.21746"/>
<feGaussianBlur stdDeviation="1.21746"/>
<feComposite in2="hardAlpha" operator="arithmetic" k2="-1" k3="1"/>
<feColorMatrix type="matrix" values="0 0 0 0 0.294118 0 0 0 0 0 0 0 0 0 0.505882 0 0 0 0.25 0"/>
<feBlend mode="normal" in2="shape" result="effect1_innerShadow_4251_13072"/>
</filter>
</defs>
</svg>
